<svg xmlns="http://www.w3.org/2000/svg" width="1em" height="1em" viewBox="0 0 20 20">
    <path fill="currentColor"
        d="M10 14.5a2 2 0 01-1.994-1.84A6.002 6.002 0 0110 1a6 6 0 015.98 5.5.47.47 0 01-.48.5.54.54 0 01-.525-.5 5 5 0 10-6.79 5.16A2 2 0 1110 14.5M5.009 12H5.1a7 7 0 002.033 1.388A3 3 0 0012.959 12H15a2 2 0 012 2c0 1.691-.833 2.966-2.135 3.797C13.583 18.614 11.855 19 10 19s-3.583-.386-4.865-1.203C3.833 16.967 3 15.69 3 14c0-1.113.903-2 2.009-2M14 7a4 4 0 01-1.87 3.387A3 3 0 0010 9.5a3 3 0 00-2.13.887 4 4 0 01-1.638-2.042A4 4 0 016 7a4 4 0 118 0" />
</svg>